<?xml version="1.0" encoding="UTF-8"?>
<!-- Generated by Pixelmator Pro 3.6.9 -->
<svg width="24" height="24" viewBox="0 0 24 24" xmlns="http://www.w3.org/2000/svg">
    <path id="Path" fill="#000000" stroke="none" d="M 5.202296 2.85903 C 7.953845 4.924759 10.913282 9.113281 12 11.36083 C 13.086718 9.113281 16.046156 4.924759 18.797705 2.85903 C 20.78307 1.368515 24 0.215223 24 3.885059 C 24 4.617954 23.579788 10.041929 23.333323 10.922578 C 22.476635 13.983973 19.354942 14.764816 16.578041 14.292211 C 21.431915 15.118309 22.666647 17.854649 19.999987 20.590986 C 14.935478 25.787832 12.720887 19.287085 12.153423 17.621367 C 12.049395 17.316 12.000718 17.173141 12 17.294621 C 11.999282 17.173141 11.950605 17.316 11.846577 17.621367 C 11.279113 19.287085 9.064521 25.787832 4.000001 20.590986 C 1.333335 17.854649 2.568076 15.118309 7.421958 14.292211 C 4.645056 14.764816 1.523387 13.983973 0.666668 10.922578 C 0.420222 10.041929 -0 4.617954 -0 3.885059 C -0 0.215223 3.216951 1.368515 5.202296 2.85903 Z"/>
</svg>
